<svg width="120" height="120" fill="none" xmlns="http://www.w3.org/2000/svg">
  <path d="m60 0 35.267 11.459 21.796 30v37.082l-21.796 30L60 120l-35.267-11.459-21.796-30V41.459l21.796-30L60 0Z" fill="#FCD043"/>
  <path d="M27.958 59.222h2.856c1.092 0 2.058.21 2.058 1.484 0 1.82-1.764 1.974-2.422 1.974h-3.22l.728-3.458Zm-2.24 4.578h4.942c1.974 0 3.542-1.176 3.542-3.094 0-1.064-.588-1.806-1.498-2.072v-.028c1.176-.182 1.904-1.302 1.904-2.408 0-1.512-.826-2.394-2.786-2.394h-4.018L25.718 63.8Zm3.136-8.876h2.464c.826 0 1.96.098 1.96 1.274 0 1.246-.742 1.904-2.128 1.904h-2.968l.672-3.178Zm7.778 6.006c0-1.498.952-3.486 2.772-3.486 1.302 0 1.904.91 1.904 2.044 0 1.428-.952 3.43-2.688 3.43-1.302 0-1.988-.798-1.988-1.988Zm-1.19.014c0 1.75 1.148 3.024 3.052 3.024 2.534 0 4.004-2.212 4.004-4.578 0-1.932-1.078-2.996-3.01-2.996-2.534 0-4.046 2.184-4.046 4.55Zm9.229-.014c0-1.498.952-3.486 2.772-3.486 1.302 0 1.904.91 1.904 2.044 0 1.428-.952 3.43-2.688 3.43-1.302 0-1.988-.798-1.988-1.988Zm-1.19.014c0 1.75 1.148 3.024 3.052 3.024 2.534 0 4.004-2.212 4.004-4.578 0-1.932-1.078-2.996-3.01-2.996-2.534 0-4.046 2.184-4.046 4.55Zm7.73 2.856h1.19l.547-2.576 1.428-1.274 1.414 3.85h1.33l-1.792-4.564 3.15-2.674h-1.554l-3.64 3.15-.028-.028 1.246-5.88h-1.176L51.212 63.8Zm10.638 0h1.19l.685-3.206c.113-.546.28-1.232.602-1.694.379-.574.883-1.008 1.54-1.176.28-.07.42-.07.715-.07.111 0 .237 0 .35.014l.28-1.274c-.14-.028-.28 0-.42 0-1.218 0-2.072.728-2.632 1.722h-.029l.35-1.554h-1.12L61.85 63.8Zm6.16-2.87c0-1.498.952-3.486 2.772-3.486 1.302 0 1.904.91 1.904 2.044 0 1.428-.952 3.43-2.688 3.43-1.302 0-1.988-.798-1.988-1.988Zm-1.19.014c0 1.75 1.148 3.024 3.052 3.024 2.534 0 4.004-2.212 4.004-4.578 0-1.932-1.078-2.996-3.01-2.996-2.534 0-4.046 2.184-4.046 4.55Zm9.229-.014c0-1.498.952-3.486 2.772-3.486 1.302 0 1.904.91 1.904 2.044 0 1.428-.952 3.43-2.688 3.43-1.302 0-1.988-.798-1.988-1.988Zm-1.19.014c0 1.75 1.148 3.024 3.052 3.024 2.534 0 4.004-2.212 4.004-4.578 0-1.932-1.078-2.996-3.01-2.996-2.534 0-4.046 2.184-4.046 4.55Zm7.73 2.856h1.19l.813-3.794c.154-.714.266-1.148.77-1.638.42-.476 1.12-.924 1.778-.924.644 0 1.008.35 1.008.952 0 .168-.098.714-.224 1.274l-.868 4.13h1.19l.798-3.738c.126-.616.28-1.204.672-1.624.406-.518 1.148-.994 1.82-.994.63 0 1.106.42 1.106.98 0 .21-.056.56-.112.784L91.52 63.8h1.19l.91-4.34c.098-.406.21-1.022.21-1.442 0-1.176-.994-1.624-2.016-1.624-.966 0-1.918.532-2.478 1.302-.21-.938-.91-1.302-1.82-1.302-.994 0-1.904.518-2.52 1.274l-.028-.028.266-1.078h-1.106l-1.54 7.238Z" fill="#1B3B36"/>
  <path d="M27.958 59.222h2.856c1.092 0 2.058.21 2.058 1.484 0 1.82-1.764 1.974-2.422 1.974h-3.22l.728-3.458Zm-2.24 4.578h4.942c1.974 0 3.542-1.176 3.542-3.094 0-1.064-.588-1.806-1.498-2.072v-.028c1.176-.182 1.904-1.302 1.904-2.408 0-1.512-.826-2.394-2.786-2.394h-4.018L25.718 63.8Zm3.136-8.876h2.464c.826 0 1.96.098 1.96 1.274 0 1.246-.742 1.904-2.128 1.904h-2.968l.672-3.178Zm7.778 6.006c0-1.498.952-3.486 2.772-3.486 1.302 0 1.904.91 1.904 2.044 0 1.428-.952 3.43-2.688 3.43-1.302 0-1.988-.798-1.988-1.988Zm-1.19.014c0 1.75 1.148 3.024 3.052 3.024 2.534 0 4.004-2.212 4.004-4.578 0-1.932-1.078-2.996-3.01-2.996-2.534 0-4.046 2.184-4.046 4.55Zm9.229-.014c0-1.498.952-3.486 2.772-3.486 1.302 0 1.904.91 1.904 2.044 0 1.428-.952 3.43-2.688 3.43-1.302 0-1.988-.798-1.988-1.988Zm-1.19.014c0 1.75 1.148 3.024 3.052 3.024 2.534 0 4.004-2.212 4.004-4.578 0-1.932-1.078-2.996-3.01-2.996-2.534 0-4.046 2.184-4.046 4.55Zm7.73 2.856h1.19l.547-2.576 1.428-1.274 1.414 3.85h1.33l-1.792-4.564 3.15-2.674h-1.554l-3.64 3.15-.028-.028 1.246-5.88h-1.176L51.212 63.8Zm10.638 0h1.19l.685-3.206c.113-.546.28-1.232.602-1.694.379-.574.883-1.008 1.54-1.176.28-.07.42-.07.715-.07.111 0 .237 0 .35.014l.28-1.274c-.14-.028-.28 0-.42 0-1.218 0-2.072.728-2.632 1.722h-.029l.35-1.554h-1.12L61.85 63.8Zm6.16-2.87c0-1.498.952-3.486 2.772-3.486 1.302 0 1.904.91 1.904 2.044 0 1.428-.952 3.43-2.688 3.43-1.302 0-1.988-.798-1.988-1.988Zm-1.19.014c0 1.75 1.148 3.024 3.052 3.024 2.534 0 4.004-2.212 4.004-4.578 0-1.932-1.078-2.996-3.01-2.996-2.534 0-4.046 2.184-4.046 4.55Zm9.229-.014c0-1.498.952-3.486 2.772-3.486 1.302 0 1.904.91 1.904 2.044 0 1.428-.952 3.43-2.688 3.43-1.302 0-1.988-.798-1.988-1.988Zm-1.19.014c0 1.75 1.148 3.024 3.052 3.024 2.534 0 4.004-2.212 4.004-4.578 0-1.932-1.078-2.996-3.01-2.996-2.534 0-4.046 2.184-4.046 4.55Zm7.73 2.856h1.19l.813-3.794c.154-.714.266-1.148.77-1.638.42-.476 1.12-.924 1.778-.924.644 0 1.008.35 1.008.952 0 .168-.098.714-.224 1.274l-.868 4.13h1.19l.798-3.738c.126-.616.28-1.204.672-1.624.406-.518 1.148-.994 1.82-.994.63 0 1.106.42 1.106.98 0 .21-.056.56-.112.784L91.52 63.8h1.19l.91-4.34c.098-.406.21-1.022.21-1.442 0-1.176-.994-1.624-2.016-1.624-.966 0-1.918.532-2.478 1.302-.21-.938-.91-1.302-1.82-1.302-.994 0-1.904.518-2.52 1.274l-.028-.028.266-1.078h-1.106l-1.54 7.238Z" fill="#000" fill-opacity=".2"/>
</svg>
