<svg width="86" height="85" fill="none" xmlns="http://www.w3.org/2000/svg">
  <g opacity=".64" fill="#FFFCF6">
    <path d="m2.487 38.038.74-1.83c.35-.835.987-1.1 1.768-.814.802.305 1.09.956.74 1.79l-.514 1.282 1.747.671-.226.55-4.255-1.648Zm2.262.245.452-1.099c.267-.63.082-1.017-.411-1.22-.494-.204-.884-.021-1.151.61l-.453 1.098 1.563.61ZM4.954 32.588l1.13-1.81c.453-.733 1.131-.916 1.748-.55.452.285.74.733.576 1.262.37-.407.74-.285 1.15-.082.412.204.823.489 1.213.428l-.37.57c-.246.04-.616-.286-1.027-.448-.411-.163-.781-.285-1.11.203l-.781 1.261 1.644 1.018-.308.508-3.865-2.36ZM7.71 32.1c.308-.468.431-.956-.124-1.302-.39-.224-.78-.203-1.089.265l-.802 1.281 1.357.814.658-1.058ZM8.47 27.443l2.096-2.32.391.347-1.686 1.871 1.09.957 1.562-1.75.39.346-1.603 1.75 1.172 1.037 1.706-1.892.39.346-2.117 2.34-3.391-3.032ZM12.519 23.228l.657-.488 3.474 2.136-1.192-3.866.658-.488 2.795 3.58-.473.347-2.322-2.99 1.171 3.844-.41.326-3.433-2.137 2.322 2.991-.472.346-2.775-3.601ZM18.602 19.08l.535-.286 2.179 3.988-.535.285-2.178-3.988ZM26.085 19c.411 1.058 0 1.872-1.069 2.238-1.11.407-1.952.142-2.364-.997l-1.007-2.706.576-.203 1.007 2.706c.267.752.884.997 1.624.712.72-.265.966-.834.678-1.567l-1.007-2.706.576-.203.986 2.726ZM27.955 15.52l.823-.121 2.014 3.54.843-3.967.822-.122.699 4.475-.576.082-.575-3.703-.843 3.926-.514.062-1.973-3.5.575 3.703-.575.081-.72-4.455ZM38.85 14.871l2.117.305c.863.122 1.315.651 1.212 1.363-.082.53-.39.956-.945 1.017.514.183.575.57.534 1.018-.04.447-.123.935.083 1.261l-.679-.102c-.144-.224.02-.671 0-1.139 0-.448-.061-.834-.637-.916l-1.48-.203-.288 1.912-.616-.081.698-4.435Zm1.562 2.32c.575.08 1.069 0 1.15-.652.063-.427-.143-.793-.677-.875l-1.501-.223-.226 1.566 1.254.183ZM46.93 16.517c1.377.468 1.706 1.77 1.295 2.95-.39 1.16-1.46 2.014-2.837 1.546-1.377-.468-1.706-1.77-1.295-2.95.37-1.18 1.46-2.014 2.837-1.546Zm-1.398 3.987c1.048.346 1.809-.407 2.097-1.261.287-.855.164-1.912-.884-2.258-1.049-.346-1.81.407-2.097 1.261-.288.855-.164 1.912.884 2.258ZM53.135 19.325c1.254.712 1.315 2.075.699 3.133-.617 1.058-1.83 1.689-3.104.957-1.275-.733-1.316-2.076-.699-3.133.658-1.058 1.87-1.69 3.104-.957Zm-2.138 3.662c.966.55 1.85-.04 2.302-.813.473-.794.535-1.831-.41-2.401-.967-.55-1.85.04-2.303.814-.473.793-.535 1.83.411 2.4ZM57.226 22.114l.638.55-1.5 3.763L60 24.576l.638.549-3.063 3.357-.432-.387 2.55-2.807-3.598 1.85-.39-.345 1.48-3.743-2.55 2.807-.431-.386 3.021-3.357ZM63.107 30.21c.493-.447.431-.955.061-1.444-.308-.386-.76-.712-1.254-.345-.452.325-.082.976.227 1.647.308.672.555 1.404-.185 1.933-.782.57-1.666.061-2.159-.59-.616-.814-.74-1.79.144-2.462l.35.468c-.617.448-.494 1.18-.083 1.71.33.447.823.813 1.357.406.493-.366.164-1.017-.144-1.688-.308-.672-.575-1.384.082-1.872.74-.57 1.583-.142 2.076.509.576.732.638 1.566-.144 2.176l-.328-.447ZM62.529 34.03l.329.61-.617.327-.329-.61.617-.326ZM68.759 38.407l.452 1.587c.103.386.247.895.165 1.18a1.065 1.065 0 0 1-.781.773c-.473.142-.884-.02-1.172-.387.041.57-.288.976-.843 1.119-.637.183-1.398-.122-1.644-.977l-.596-2.095 4.419-1.2Zm-3.72 1.648.41 1.464c.145.509.535.733 1.028.61.576-.162.596-.67.473-1.159l-.39-1.322-1.522.406Zm1.993-.55.309 1.16c.185.671.493.854.945.732.617-.163.576-.61.432-1.119l-.308-1.16-1.378.387ZM70.319 45.688l.061.671-4.378 2.177-.062-.671 1.316-.61-.185-1.893-1.418-.386-.062-.631 4.728 1.343Zm-2.714-.204.144 1.526 2.035-.956-2.179-.57ZM70.546 50.43l-.062.63-3.884 2.055 3.679.305-.041.57-4.564-.367.042-.65 3.844-2.055-3.639-.306.041-.57 4.584.387ZM69.724 56.86l-.164.57-2.2-.59 1.603 2.807-.205.732-1.274-2.32-3.145 1.201.205-.732 2.672-.977-.472-.915-1.542-.428.164-.57 4.358 1.221ZM66.394 65.73l-.308.509-1.686-1.017-1.233 2.034 1.686 1.017-.309.509-3.905-2.36.308-.508 1.788 1.078 1.234-2.035-1.789-1.078.309-.508 3.905 2.36ZM61.543 72.646c-.987 1.058-2.323.834-3.248 0-.925-.834-1.274-2.116-.308-3.194.966-1.078 2.322-.834 3.247 0 .925.834 1.275 2.116.309 3.194Zm-3.166-2.848c-.74.814-.35 1.81.33 2.4.678.59 1.705.916 2.445.102.74-.814.35-1.81-.329-2.4-.678-.59-1.706-.916-2.446-.102ZM56.877 76.124l1.212-.916.309.387-2.899 2.218-.308-.387 1.213-.916-2.467-3.173.494-.367 2.446 3.154ZM53.507 79.055l-2.775 1.485-.247-.447 2.24-1.2-.699-1.262-2.076 1.119-.246-.448 2.076-1.119-.76-1.363-2.262 1.221-.246-.447 2.795-1.506 2.2 3.967ZM48.346 81.555l-.575.203-1.357-3.784-2.282.793-.164-.488 2.857-.997 1.521 4.273Z"/>
  </g>
  <path d="M37.016 41.225a1.094 1.094 0 0 1 1.363-.908c.591.157.908.798.673 1.364l-3.129 7.548 1.093-8.004Z" fill="#FCD043"/>
  <path d="M44.032 50.313c.645.086 1.065.718.895 1.345a1.014 1.014 0 0 1-1.358.675l-7.646-3.105 8.109 1.084Z" fill="#FCD043"/>
  <path d="M42.44 44.357a1.096 1.096 0 0 1 1.604.319 1.002 1.002 0 0 1-.488 1.431L35.94 49.26l6.5-4.902ZM40.894 55.695a1.072 1.072 0 0 1-.322 1.587c-.53.303-1.21.076-1.446-.483l-3.184-7.537 4.952 6.433ZM34.83 57.231a1.094 1.094 0 0 1-1.364.908 1.009 1.009 0 0 1-.673-1.363l3.129-7.549-1.093 8.005ZM27.813 48.14a1.074 1.074 0 0 1-.896-1.345 1.014 1.014 0 0 1 1.359-.674l7.646 3.104-8.11-1.084Z" fill="#FCD043"/>
  <path d="M29.44 54.163a1.096 1.096 0 0 1-1.604-.318 1.002 1.002 0 0 1 .489-1.431l7.615-3.152-6.5 4.901ZM30.99 42.828a1.072 1.072 0 0 1 .322-1.588 1.021 1.021 0 0 1 1.446.484l3.184 7.537-4.952-6.434Z" fill="#FCD043"/>
</svg>
